<svg xmlns="http://www.w3.org/2000/svg" width="55.016" height="55.001" viewBox="0 0 55.016 55.001"><g transform="translate(14385 -4254.327)"><path d="M37.71,83.372a2.435,2.435,0,0,0,3.271-.7c.585-.821,1.169-1.641,1.866-2.451a2.319,2.319,0,1,0-3.507-3.035A29.407,29.407,0,0,0,37,80.224,2.3,2.3,0,0,0,37.71,83.372Z" transform="translate(-14417.527 4186.502)" fill="#0c0b0b"/><path d="M231.514,4.621a20.619,20.619,0,0,1,6.553,1.057,2.456,2.456,0,0,0,2.923-1.405,2.366,2.366,0,0,0-1.518-2.923A25.53,25.53,0,0,0,231.638.068,2.25,2.25,0,0,0,229.3,2.294,2.231,2.231,0,0,0,231.514,4.621Z" transform="translate(-14588.524 4254.259)" fill="#0c0b0b"/><path d="M432.907,142.209a22.913,22.913,0,0,1,1.518,6.194s.135,2.608,2.574,2.226a2.351,2.351,0,0,0,2.1-2.687,27.2,27.2,0,0,0-1.866-7.486,2.335,2.335,0,0,0-4.328,1.754Z" transform="translate(-14769.099 4130.936)" fill="#0c0b0b"/><path d="M351.486,43.251a22.845,22.845,0,0,1,4.912,4.564,2.3,2.3,0,0,0,3.159.348,2.383,2.383,0,0,0,.348-3.271,29.076,29.076,0,0,0-5.845-5.384,2.271,2.271,0,0,0-2.574,3.743Z" transform="translate(-14696.097 4219.608)" fill="#0c0b0b"/><path d="M107.711,15.707a23.5,23.5,0,0,1,6.081-2.687,2.3,2.3,0,1,0-1.169-4.451,26.591,26.591,0,0,0-7.25,3.159,2.274,2.274,0,0,0-.7,3.159A2.375,2.375,0,0,0,107.711,15.707Z" transform="translate(-14477.581 4246.792)" fill="#0c0b0b"/><path d="M52.663,267.733a2.135,2.135,0,0,0-2.687,1.754c-.236,1.057-.955,3.518-.967,3.754A22.982,22.982,0,0,1,8.7,278.12l4.328.956a2.269,2.269,0,0,0,.933-4.44l-9.116-1.99a2.436,2.436,0,0,0-2.81,1.754l-1.99,9.24A2.26,2.26,0,0,0,1.8,286.326a2.563,2.563,0,0,0,2.81-1.866l.7-3.17a27.587,27.587,0,0,0,48.3-7.228c.112-.292.641-2.743.821-3.631A2.141,2.141,0,0,0,52.663,267.733Z" transform="translate(-14385 4016.754)" fill="#0c0b0b"/><path d="M146.138,102.129h10.78a2.428,2.428,0,0,0,2.338-2.338V83.806a2.338,2.338,0,1,0-4.676,0V97.453h-8.442a2.338,2.338,0,0,0,0,4.676Z" transform="translate(-14512.636 4182.009)" fill="#0c0b0b"/></g></svg>