<svg xmlns="http://www.w3.org/2000/svg" width="56" height="56" viewBox="0 0 56 56"><g transform="translate(-121 -4930.586)"><path d="M28,0A28.005,28.005,0,0,0,4.24,42.821C3.134,46.7,1.136,54.025,1.115,54.1A1.077,1.077,0,0,0,2.47,55.413L13.569,52A28,28,0,1,0,28,0Zm0,53.846a25.782,25.782,0,0,1-13.71-3.932,1.077,1.077,0,0,0-.572-.164,1.1,1.1,0,0,0-.317.047L3.71,52.781c.712-2.6,1.991-7.247,2.733-9.832a1.081,1.081,0,0,0-.131-.884A25.849,25.849,0,1,1,28,53.846Z" transform="translate(121 4930.586)" fill="#070707"/><path d="M45.573,33.845c-1.988-1.1-3.681-2.211-4.916-3.019-.943-.616-1.625-1.061-2.125-1.312a2.447,2.447,0,0,0-2.858.2,1.077,1.077,0,0,0-.135.164c-1.451,2.176-3.345,4.258-3.9,4.37-.641-.1-3.64-1.8-6.621-4.287C21.976,27.428,20.061,25,19.78,23.345c1.952-2.01,2.656-3.274,2.656-4.713,0-1.483-3.459-7.674-4.085-8.3s-2.042-.725-4.2-.294a1.087,1.087,0,0,0-.55.294c-.262.262-6.385,6.5-3.475,14.071,3.194,8.3,11.393,17.957,21.845,19.525a22.651,22.651,0,0,0,3.344.266c6.149,0,9.778-3.094,10.8-9.231A1.073,1.073,0,0,0,45.573,33.845ZM32.287,41.8C21.234,40.141,14.271,29.19,12.133,23.631c-2.122-5.514,1.791-10.43,2.773-11.541a8.123,8.123,0,0,1,1.991-.138,38.677,38.677,0,0,1,3.385,6.681c0,.565-.184,1.353-2.377,3.546a1.072,1.072,0,0,0-.316.761c0,5.639,11.894,13.462,14,13.462,1.832,0,4.22-3.079,5.581-5.085a1.021,1.021,0,0,1,.4.125c.388.195,1.06.633,1.909,1.189,1.122.733,2.613,1.707,4.372,2.716C43.052,39.191,40.819,43.08,32.287,41.8Z" transform="translate(121.719 4931.338)" fill="#070707"/></g></svg>