<svg xmlns="http://www.w3.org/2000/svg" width="59.997" height="59.023" viewBox="0 0 59.997 59.023"><g transform="translate(-117.003 -5025.779)"><path d="M44.071,38.385a4.929,4.929,0,0,0-3.721-.646,3.325,3.325,0,0,0-1.995,1.546,33.713,33.713,0,0,1-2.592,2.867c-2.371,1.6-4.252,1.414-6.3-.629L17.982,30.037c-2.045-2.045-2.233-3.928-.631-6.292A33.313,33.313,0,0,1,20.22,21.15a3.327,3.327,0,0,0,1.546-2,4.945,4.945,0,0,0-.653-3.731c-.173-.3-4.289-7.27-8.085-9.277a4.907,4.907,0,0,0-5.8.872L4.7,9.555c-7.4,7.4-6.031,16.6,3.962,26.588l14.7,14.706C27.9,55.389,32.3,58.175,36.43,59.13a14.3,14.3,0,0,0,3.224.38c3.717,0,7.169-1.573,10.3-4.7l2.537-2.537a4.907,4.907,0,0,0,.872-5.8C51.351,42.682,44.378,38.564,44.071,38.385Zm7,12.473L48.536,53.4c-6.568,6.568-14.563,5.237-23.76-3.961L10.071,34.728c-9.2-9.2-10.53-17.19-3.962-23.76L8.646,8.431a2.919,2.919,0,0,1,3.446-.518c3.294,1.743,7.256,8.454,7.289,8.511a3.075,3.075,0,0,1,.457,2.2,1.343,1.343,0,0,1-.684.836l-.15.1A29.588,29.588,0,0,0,15.7,22.621a8.271,8.271,0,0,0-1.231,2.665A14.162,14.162,0,0,1,12.991,20.4,1,1,0,1,0,11,20.612c.722,6.953,6.13,11.479,6.359,11.668.025.021.055.028.081.046L28.052,42.938c.045.045.091.084.136.127a.933.933,0,0,0,.1.155,20.866,20.866,0,0,0,11.6,5.283c.035,0,.07.005.1.005a1,1,0,0,0,.1-1.995,17.616,17.616,0,0,1-5.549-1.558,8.585,8.585,0,0,0,2.334-1.147,29.563,29.563,0,0,0,3.06-3.307l.1-.151a1.353,1.353,0,0,1,.836-.684,3.084,3.084,0,0,1,2.185.45c1.879,1.1,7.073,4.56,8.521,7.3A2.913,2.913,0,0,1,51.073,50.858Z" transform="translate(117.003 5025.292)" fill="#0d0d0d"/><path d="M27.362.487a1,1,0,0,0,0,2A30.67,30.67,0,0,1,58,33.122a1,1,0,0,0,2,0A32.672,32.672,0,0,0,27.362.487Z" transform="translate(117.003 5025.292)" fill="#0d0d0d"/><path d="M27.362,9.517a23.63,23.63,0,0,1,23.6,23.6,1,1,0,0,0,2,0,25.633,25.633,0,0,0-25.6-25.6,1,1,0,1,0,0,2Z" transform="translate(117.003 5025.292)" fill="#0d0d0d"/><path d="M27.362,16.547A16.594,16.594,0,0,1,43.937,33.122a1,1,0,0,0,2,0A18.6,18.6,0,0,0,27.362,14.547a1,1,0,0,0,0,2Z" transform="translate(117.003 5025.292)" fill="#0d0d0d"/></g></svg>