<svg xmlns="http://www.w3.org/2000/svg" width="93.578" height="103.975" viewBox="0 0 93.578 103.975"><g transform="translate(-1)"><path d="M47.789,0,44.864,2.092l-3,1.939L38.762,5.838,35.594,7.5,32.345,9.017l-3.32,1.361L25.653,11.6l-3.422,1.056-3.462.894-3.513.741-3.544.569-3.554.406-3.574.254L1,15.6l.081,4.336.264,4.326.437,4.315.619,4.3.792,4.265.954,4.224L5.275,45.54l1.3,4.133,1.462,4.082,1.635,4.021,1.8,3.949,1.95,3.869,2.1,3.8,2.254,3.7,2.406,3.6L22.739,80.2l2.691,3.4,2.823,3.28,2.955,3.168,3.087,3.056L37.5,96.025l3.32,2.792,3.432,2.65,3.534,2.508,3.534-2.508,3.432-2.65,3.32-2.792,3.209-2.914,3.087-3.056,2.954-3.168,2.823-3.28,2.691-3.4,2.548-3.513,2.407-3.6,2.264-3.7,2.1-3.8,1.95-3.869,1.8-3.949,1.625-4.021,1.462-4.082,1.3-4.133,1.137-4.183.965-4.224.782-4.265.619-4.3.437-4.315.264-4.326.081-4.336-3.585-.081-3.574-.254-3.553-.406-3.544-.569-3.513-.741-3.462-.894L69.924,11.6l-3.381-1.218-3.31-1.361L59.983,7.5,56.805,5.838l-3.1-1.807L50.7,2.092Zm0,6.387L50.9,8.4l3.188,1.868L57.344,12l3.351,1.584,3.4,1.422,3.473,1.279,3.523,1.127,3.574.954,3.6.812,3.635.64,3.666.487,3.686.325-.284,4.092-.457,4.082-.609,4.072-.782,4.031-.944,4-1.107,3.96-1.259,3.9L82.4,52.627l-1.584,3.8L79.1,60.151l-1.878,3.655L75.2,67.38l-2.173,3.493-2.295,3.412-2.437,3.3-2.569,3.209-2.7,3.1-2.822,2.985L57.272,89.75l-3.056,2.741-3.168,2.63-3.26,2.5-3.259-2.5-3.168-2.63L38.315,89.75l-2.945-2.874-2.823-2.985-2.7-3.1-2.559-3.209-2.447-3.3-2.295-3.412L20.373,67.38l-2.021-3.574-1.868-3.655-1.736-3.726-1.564-3.8-1.422-3.858L10.5,44.87,9.4,40.91l-.944-4-.782-4.031-.609-4.072L6.6,24.725l-.284-4.092L10,20.308l3.666-.487,3.645-.64,3.615-.812,3.564-.954,3.523-1.127,3.473-1.279,3.4-1.422L38.234,12l3.27-1.736L44.682,8.4ZM68.624,33.772a2.6,2.6,0,0,0-1.787.782L42.681,58.709l-8.56-8.56c-2.45-2.552-6.227,1.226-3.676,3.676l10.4,10.4a2.6,2.6,0,0,0,3.676,0L70.513,38.229A2.6,2.6,0,0,0,68.624,33.772Z" fill="#2e8b57"/></g></svg>