<svg xmlns="http://www.w3.org/2000/svg" width="103.187" height="110.831" viewBox="0 0 103.187 110.831"><path d="M108.187,21.574,91.219,3H5V85.167H22.2v20.064a8.6,8.6,0,1,0,17.2,0V85.167h68.791ZM92.9,10.51l8.847,9.688H92.9ZM35.574,105.232a4.777,4.777,0,1,1-9.554,0V75.613h9.554ZM31.752,52.683a17.2,17.2,0,1,1,17.2-17.2A17.2,17.2,0,0,1,31.752,52.683ZM29.841,56.5c.631,0,1.261.1,1.911.1a12.678,12.678,0,0,0,1.911-.1V71.791H29.841ZM39.4,81.346V71.791H37.485V55.683a21.02,21.02,0,1,0-11.465,0V71.791H22.2v9.554H8.822V6.822H89.078v17.2h15.287V81.346Z" transform="translate(-5 -3)" fill="#2e8b57"/></svg>