<svg xmlns="http://www.w3.org/2000/svg" width="94.12" height="117.65" viewBox="0 0 94.12 117.65"><g transform="translate(0 7.843)"><path d="M92.237,3H68.872V6.922H92.237A1.964,1.964,0,0,1,94.2,8.882v98.041a1.964,1.964,0,0,1-1.961,1.961H9.882a1.964,1.964,0,0,1-1.961-1.961V8.882A1.964,1.964,0,0,1,9.882,6.922h23.53V3H9.882A5.89,5.89,0,0,0,4,8.882v98.041a5.89,5.89,0,0,0,5.882,5.882H92.237a5.89,5.89,0,0,0,5.882-5.882V8.882A5.89,5.89,0,0,0,92.237,3Z" transform="translate(-4 -3)" fill="#2e8b57"/><g transform="translate(70.59 7.843)"><path d="M35.726,71.668a1.962,1.962,0,0,1-1.961-1.961V8.922h-9.8a1.961,1.961,0,0,1,0-3.922H35.726a1.962,1.962,0,0,1,1.961,1.961V69.707A1.962,1.962,0,0,1,35.726,71.668Z" transform="translate(-22 -5)" fill="#2e8b57"/></g><g transform="translate(7.843 7.843)"><path d="M62.864,99.12H7.961A1.962,1.962,0,0,1,6,97.159V6.961A1.962,1.962,0,0,1,7.961,5H19.726a1.961,1.961,0,0,1,0,3.922h-9.8V95.2H62.864a1.961,1.961,0,1,1,0,3.922Z" transform="translate(-6 -5)" fill="#2e8b57"/></g><g transform="translate(62.747 78.433)"><path d="M21.961,46.53a2.008,2.008,0,0,1-.749-.149A1.961,1.961,0,0,1,20,44.569V24.961A1.962,1.962,0,0,1,21.961,23H41.569a1.963,1.963,0,0,1,1.388,3.349L23.349,45.957A1.976,1.976,0,0,1,21.961,46.53Zm1.961-19.608V39.836L36.836,26.922Z" transform="translate(-20 -23)" fill="#2e8b57"/></g><g transform="translate(15.687 27.129)"><g transform="translate(0.001 19.608)"><path d="M14.482,27.068h-.043A1.948,1.948,0,0,1,13,26.386L8.474,21.107a1.959,1.959,0,1,1,2.977-2.549l3.1,3.616,6.235-6.639a1.963,1.963,0,0,1,2.859,2.69l-7.734,8.232A1.988,1.988,0,0,1,14.482,27.068Z" transform="translate(-8 -14.918)" fill="#2e8b57"/></g><g transform="translate(0.001)"><path d="M14.482,22.068h-.043A1.948,1.948,0,0,1,13,21.386L8.474,16.107a1.959,1.959,0,1,1,2.977-2.549l3.1,3.616,6.235-6.639a1.963,1.963,0,0,1,2.859,2.69l-7.734,8.232A1.988,1.988,0,0,1,14.482,22.068Z" transform="translate(-8 -9.918)" fill="#2e8b57"/></g><g transform="translate(19.608 47.383)"><path d="M30.647,25.922H14.961a1.961,1.961,0,0,1,0-3.922H30.647a1.961,1.961,0,1,1,0,3.922Z" transform="translate(-13 -22)" fill="#2e8b57"/></g><g transform="translate(19.608 39.54)"><path d="M50.256,23.922H14.961a1.961,1.961,0,0,1,0-3.922H50.256a1.961,1.961,0,1,1,0,3.922Z" transform="translate(-13 -20)" fill="#2e8b57"/></g><g transform="translate(43.138 19.931)"><path d="M32.726,18.922H20.961a1.961,1.961,0,0,1,0-3.922H32.726a1.961,1.961,0,1,1,0,3.922Z" transform="translate(-19 -15)" fill="#2e8b57"/></g><g transform="translate(19.608 27.775)"><path d="M42.412,20.922H14.961a1.961,1.961,0,1,1,0-3.922H42.412a1.961,1.961,0,1,1,0,3.922Z" transform="translate(-13 -17)" fill="#2e8b57"/></g><g transform="translate(19.608 19.931)"><path d="M30.647,18.922H14.961a1.961,1.961,0,1,1,0-3.922H30.647a1.961,1.961,0,1,1,0,3.922Z" transform="translate(-13 -15)" fill="#2e8b57"/></g><g transform="translate(19.608 0.323)"><path d="M50.256,13.922H14.961a1.961,1.961,0,0,1,0-3.922H50.256a1.961,1.961,0,1,1,0,3.922Z" transform="translate(-13 -10)" fill="#2e8b57"/></g><g transform="translate(19.608 8.166)"><path d="M34.569,15.922H14.961a1.961,1.961,0,0,1,0-3.922H34.569a1.961,1.961,0,0,1,0,3.922Z" transform="translate(-13 -12)" fill="#2e8b57"/></g><g transform="translate(0 39.54)"><path d="M17.8,31.765H9.961A1.962,1.962,0,0,1,8,29.8V21.961A1.962,1.962,0,0,1,9.961,20H17.8a1.962,1.962,0,0,1,1.961,1.961V29.8A1.962,1.962,0,0,1,17.8,31.765Zm-5.882-3.922h3.922V23.922H11.922Z" transform="translate(-8 -20)" fill="#2e8b57"/></g></g></g><g transform="translate(27.452 3.922)"><path d="M48.256,21.608H12.961A1.962,1.962,0,0,1,11,19.647V7.882A5.89,5.89,0,0,1,16.882,2a1.961,1.961,0,0,1,0,3.922,1.964,1.964,0,0,0-1.961,1.961v9.8H46.295v-9.8a1.964,1.964,0,0,0-1.961-1.961,1.961,1.961,0,0,1,0-3.922,5.89,5.89,0,0,1,5.882,5.882V19.647A1.962,1.962,0,0,1,48.256,21.608Z" transform="translate(-11 -2)" fill="#2e8b57"/></g><g transform="translate(39.217)"><path d="M27.726,8.843a1.962,1.962,0,0,1-1.961-1.961A1.964,1.964,0,0,0,23.8,4.922H19.882a1.916,1.916,0,0,0-1.161.38,1.937,1.937,0,0,0-.8,1.58,1.961,1.961,0,1,1-3.922,0,5.9,5.9,0,0,1,2.388-4.733A5.84,5.84,0,0,1,19.882,1H23.8a5.89,5.89,0,0,1,5.882,5.882A1.962,1.962,0,0,1,27.726,8.843Z" transform="translate(-14 -1)" fill="#2e8b57"/></g></svg>